<svg xmlns="http://www.w3.org/2000/svg" width="256" height="256" viewBox="0 0 256 256" version="1.1"><path d="M 190.252 9.219 L 186.033 13.438 182.035 9.534 C 176.840 4.461, 175.430 5.808, 180.500 11 C 182.629 13.180, 184.163 15.084, 183.910 15.232 C 183.657 15.379, 180.648 18.186, 177.224 21.470 L 170.998 27.440 164.722 21.220 C 161.270 17.799, 157.994 15, 157.442 15 C 156.889 15, 153.766 17.700, 150.500 21 C 147.234 24.300, 144.084 27, 143.500 27 C 142.916 27, 139.766 24.300, 136.500 21 C 133.234 17.700, 130.002 15, 129.318 15 C 128.633 15, 125.107 17.775, 121.481 21.166 L 114.889 27.333 108.668 21.166 C 105.246 17.775, 101.795 15, 101 15 C 100.205 15, 96.729 17.800, 93.277 21.221 L 87 27.442 80.723 21.221 C 77.271 17.800, 73.795 15, 73 15 C 72.205 15, 68.754 17.775, 65.332 21.166 L 59.111 27.333 52.519 21.166 C 48.893 17.775, 45.367 15, 44.682 15 C 43.998 15, 40.766 17.700, 37.500 21 C 34.234 24.300, 31.082 27, 30.494 27 C 29.906 27, 27.219 24.760, 24.523 22.023 C 21.827 19.286, 19.395 17.272, 19.119 17.548 C 18.843 17.824, 21.052 20.515, 24.028 23.528 L 29.439 29.007 22.496 36.004 L 15.554 43 22.500 50 L 29.446 57 22.723 63.775 C 19.025 67.501, 16 70.829, 16 71.169 C 16 71.509, 19.038 74.742, 22.750 78.354 L 29.500 84.920 22.750 91.735 C 19.038 95.483, 16 98.923, 16 99.379 C 16 99.835, 18.813 103.120, 22.250 106.681 C 25.688 110.241, 28.500 113.310, 28.500 113.500 C 28.500 113.690, 25.688 116.759, 22.250 120.319 C 18.813 123.880, 16 127.165, 16 127.621 C 16 128.077, 19.038 131.517, 22.750 135.265 L 29.500 142.080 22.750 148.646 C 19.038 152.258, 16 155.575, 16 156.018 C 16 156.460, 17.385 157.987, 19.077 159.411 C 20.769 160.835, 21.911 162, 21.615 162 C 21.320 162, 22.973 163.795, 25.289 165.989 L 29.500 169.978 22.799 176.548 C 16.390 182.831, 13.203 187.627, 16.199 186.477 C 16.946 186.191, 20.136 188.601, 23.467 191.967 L 29.405 197.968 26.703 200.788 C 25.216 202.340, 24 204.182, 24 204.881 C 24 205.581, 25.165 204.769, 26.589 203.077 C 28.013 201.385, 29.714 200, 30.370 200 C 31.026 200, 34.235 202.701, 37.501 206.001 L 43.440 212.002 37.001 218.498 L 30.563 224.995 25.782 220.285 C 23.152 217.695, 21 215.991, 21 216.500 C 21 217.008, 22.881 219.341, 25.180 221.683 L 29.360 225.942 23.680 231.897 C 20.556 235.172, 18 238.110, 18 238.426 C 18 239.751, 19.465 238.698, 25.101 233.323 L 31.053 227.645 34.818 231.323 C 40.096 236.476, 41.336 235.937, 36.213 230.717 L 32.009 226.433 38.514 219.986 L 45.019 213.539 51.222 219.742 L 57.426 225.946 54.699 228.792 C 53.199 230.358, 52.278 231.945, 52.653 232.319 C 53.027 232.694, 52.696 233.013, 51.917 233.028 C 51.138 233.043, 49.187 234.394, 47.581 236.030 C 44.952 238.709, 44.497 238.855, 43.002 237.502 C 42.089 236.676, 40.766 236, 40.060 236 C 39.355 236, 39.841 236.869, 41.139 237.932 L 43.500 239.864 39.042 244.432 C 33.712 249.893, 35.735 250.632, 41.278 245.250 L 45.141 241.500 46.981 243.750 C 47.993 244.988, 49.395 246, 50.097 246 C 50.800 246, 50.149 244.722, 48.653 243.159 L 45.931 240.318 50.443 236.159 C 52.925 233.872, 54.680 232, 54.343 232 C 54.006 232, 54.954 231.038, 56.449 229.862 L 59.167 227.723 65.360 233.862 C 68.767 237.238, 72.278 240, 73.162 240 C 74.047 240, 77.532 237.188, 80.907 233.750 L 87.043 227.500 90.522 231.235 C 92.435 233.290, 94 234.718, 94 234.409 C 94 234.099, 95.238 235.322, 96.750 237.126 C 98.263 238.930, 99.387 240.764, 99.250 241.203 C 99.112 241.641, 99.927 242, 101.059 242 C 102.191 242, 102.888 241.628, 102.607 241.173 C 102.326 240.719, 105 237.469, 108.548 233.952 L 115 227.558 121.452 233.952 C 125 237.469, 127.674 240.719, 127.393 241.173 C 127.112 241.628, 127.809 242, 128.941 242 C 130.073 242, 131 241.423, 131 240.719 C 131 240.014, 133.718 236.751, 137.041 233.469 L 143.081 227.500 150.156 234.750 C 154.047 238.738, 157.352 242, 157.500 242 C 157.648 242, 160.953 238.738, 164.844 234.750 L 171.919 227.500 177.959 233.469 C 181.282 236.751, 184 240.014, 184 240.719 C 184 241.423, 184.927 242, 186.059 242 C 187.191 242, 187.888 241.628, 187.607 241.173 C 187.326 240.719, 190 237.469, 193.548 233.952 L 200 227.558 206.452 233.952 C 210 237.469, 212.674 240.719, 212.393 241.173 C 212.112 241.628, 212.835 242, 214 242 C 215.165 242, 215.888 241.628, 215.607 241.173 C 215.326 240.719, 217.998 237.470, 221.545 233.955 L 227.995 227.563 233.497 232.997 C 236.524 235.986, 239 237.978, 239 237.424 C 239 236.870, 236.975 234.429, 234.500 232 C 232.025 229.571, 230 227.099, 230 226.508 C 230 225.916, 232.475 222.987, 235.500 220 C 238.525 217.013, 241 214.116, 241 213.563 C 241 213.010, 238.076 215.456, 234.501 218.999 L 228.002 225.440 222.001 219.501 C 218.701 216.235, 216 213.084, 216 212.500 C 216 211.916, 218.699 208.767, 221.997 205.503 L 227.994 199.569 232.747 204.091 C 235.361 206.578, 238.400 209.255, 239.500 210.040 C 241.494 211.461, 241.494 211.458, 239.534 208.983 C 238.453 207.617, 235.770 204.585, 233.571 202.245 L 229.573 197.989 235.287 192.216 C 238.429 189.040, 241 186.018, 241 185.500 C 241 184.982, 238.175 187.358, 234.722 190.780 L 228.444 197.002 221.992 190.492 L 215.539 183.981 221.701 177.819 L 227.863 171.657 234.045 177.381 C 237.446 180.530, 240.488 182.845, 240.807 182.527 C 241.125 182.208, 238.728 179.262, 235.479 175.979 L 229.573 170.011 233.571 165.755 C 235.770 163.415, 238.453 160.383, 239.534 159.017 C 241.494 156.542, 241.494 156.539, 239.500 157.960 C 238.400 158.745, 235.361 161.422, 232.747 163.909 L 227.994 168.431 221.997 162.497 C 218.699 159.233, 216 156.084, 216 155.500 C 216 154.916, 218.701 151.765, 222.001 148.499 L 228.002 142.560 234.501 149.001 C 238.076 152.544, 241 154.990, 241 154.437 C 241 153.884, 238.525 150.987, 235.500 148 C 232.475 145.013, 230 142.088, 230 141.500 C 230 140.912, 232.475 137.987, 235.500 135 C 238.525 132.013, 241 129.116, 241 128.563 C 241 128.010, 238.076 130.456, 234.501 133.999 L 228.002 140.440 222.001 134.501 C 218.701 131.235, 216 128.084, 216 127.500 C 216 126.916, 218.701 123.765, 222.001 120.499 L 228.002 114.560 234.501 121.001 C 238.076 124.544, 241 126.990, 241 126.437 C 241 125.884, 238.525 122.987, 235.500 120 C 232.475 117.013, 230 114.088, 230 113.500 C 230 112.912, 232.475 109.987, 235.500 107 C 238.525 104.013, 241 101.116, 241 100.563 C 241 100.010, 238.075 102.457, 234.500 106 L 228 112.442 221.499 105.999 L 214.998 99.556 221.220 93.278 C 224.642 89.825, 227.698 87, 228.011 87 C 228.325 87, 231.375 89.786, 234.790 93.190 C 238.206 96.595, 241 98.942, 241 98.406 C 241 97.870, 238.525 94.987, 235.500 92 C 232.475 89.013, 230 86.089, 230 85.503 C 230 84.917, 232.695 81.771, 235.988 78.511 L 241.977 72.585 245.474 75.974 C 250.030 80.391, 251.396 79.035, 246.979 74.479 L 243.596 70.988 247.985 66.515 C 253.550 60.844, 252.844 59.676, 247.176 65.177 C 242.176 70.029, 241.618 69.898, 234.527 62.207 L 229.647 56.915 235.542 50.957 C 238.785 47.681, 241.769 45, 242.175 45 C 242.581 45, 244.834 46.774, 247.182 48.942 C 252.900 54.222, 253.511 53.115, 247.985 47.485 L 243.596 43.012 246.815 39.690 C 251.025 35.348, 249.638 33.990, 245.293 38.200 L 241.955 41.435 235.760 35.240 L 229.565 29.045 232.584 25.772 C 234.245 23.973, 236.256 21.600, 237.052 20.500 C 238.427 18.601, 238.399 18.576, 236.500 20 C 235.400 20.825, 234.271 21.725, 233.991 22 C 233.712 22.275, 232.239 23.601, 230.718 24.946 L 227.954 27.392 221.977 21.477 C 218.690 18.224, 216 15.026, 216 14.370 C 216 13.714, 217.325 12.063, 218.945 10.700 C 220.564 9.337, 221.606 7.939, 221.260 7.594 C 220.914 7.248, 219.137 8.414, 217.310 10.185 L 213.988 13.404 209.515 9.015 C 207.055 6.600, 204.795 4.872, 204.492 5.174 C 204.190 5.477, 212.341 14.351, 222.605 24.895 C 232.870 35.439, 240.983 44.351, 240.634 44.699 C 240.285 45.048, 240 44.997, 240 44.586 C 240 44.176, 237.493 46.238, 234.430 49.170 C 231.366 52.101, 228.543 54.616, 228.156 54.758 C 227.769 54.900, 224.778 52.312, 221.508 49.008 L 215.563 43 221.474 37.026 C 224.725 33.741, 227.062 30.729, 226.667 30.333 C 226.271 29.938, 223.259 32.275, 219.973 35.527 L 213.998 41.440 207.498 34.998 L 200.998 28.556 207.220 22.278 C 210.642 18.825, 213.018 16, 212.500 16 C 211.982 16, 208.958 18.573, 205.780 21.717 L 200.003 27.435 194.282 21.967 C 187.003 15.010, 186.790 14.709, 188.269 13.459 C 191.322 10.876, 196.298 5, 195.431 5 C 194.903 5, 192.572 6.899, 190.252 9.219 M 177.670 22.250 C 173.660 26.238, 170.769 29.227, 171.245 28.894 C 171.722 28.561, 174.857 31.149, 178.214 34.644 C 181.571 38.140, 184.822 41, 185.440 41 C 186.057 41, 189.234 38.300, 192.500 35 L 198.437 29 192.719 23.221 C 189.573 20.043, 187 16.893, 187 16.221 C 187 13.742, 184.786 15.173, 177.670 22.250 M 38.001 22.499 L 31.560 28.998 37.499 34.999 C 40.765 38.299, 43.916 41, 44.500 41 C 45.084 41, 48.222 38.312, 51.473 35.027 L 57.383 29.054 51.442 22.644 C 48.174 19.119, 45.262 16.182, 44.971 16.117 C 44.680 16.053, 41.544 18.924, 38.001 22.499 M 66.220 22.278 L 59.998 28.556 66.508 35.008 L 73.019 41.461 79.212 35.268 L 85.404 29.076 79.452 22.655 C 76.178 19.124, 73.262 16.182, 72.971 16.117 C 72.680 16.053, 69.642 18.825, 66.220 22.278 M 94.548 22.655 L 88.596 29.076 94.788 35.268 L 100.981 41.461 107.492 35.008 L 114.002 28.556 107.780 22.278 C 104.358 18.825, 101.320 16.053, 101.029 16.117 C 100.738 16.182, 97.822 19.124, 94.548 22.655 M 123.011 22.489 L 116.560 28.998 122.499 34.999 C 125.765 38.299, 128.916 41, 129.500 41 C 130.084 41, 133.239 38.295, 136.511 34.989 L 142.459 28.978 135.961 22.479 L 129.462 15.980 123.011 22.489 M 150.973 22.527 L 144.538 29.020 151.079 35.560 L 157.619 42.101 163.700 35.259 L 169.780 28.418 166.033 24.459 C 163.972 22.282, 161.188 19.495, 159.847 18.267 L 157.408 16.035 150.973 22.527 M 177.462 23.250 L 172.500 28.500 177.750 23.538 C 182.628 18.926, 183.459 18, 182.712 18 C 182.554 18, 180.192 20.362, 177.462 23.250 M 24.010 36.490 L 17.558 43 24.010 49.510 L 30.462 56.020 36.972 49.510 L 43.481 43 36.972 36.490 L 30.462 29.980 24.010 36.490 M 52.011 36.489 L 45.560 42.998 51.499 48.999 C 54.765 52.299, 57.916 55, 58.500 55 C 59.084 55, 62.239 52.295, 65.511 48.989 L 71.459 42.978 64.961 36.479 L 58.462 29.980 52.011 36.489 M 136.932 36.568 L 130.539 43.019 136.760 49.240 L 142.981 55.461 149.534 48.981 L 156.087 42.500 152.148 38.812 C 149.982 36.783, 148.328 34.983, 148.473 34.812 C 148.618 34.640, 147.519 33.514, 146.031 32.309 L 143.326 30.118 136.932 36.568 M 166.340 33.167 C 164.847 34.725, 164.023 36, 164.509 36 C 164.995 36, 163.860 37.581, 161.988 39.513 L 158.583 43.025 165.041 49.557 L 171.500 56.089 174.750 52.559 C 176.537 50.618, 178 49.263, 178 49.549 C 178 49.836, 179.421 48.451, 181.159 46.472 L 184.318 42.874 178.103 36.604 C 174.685 33.155, 171.251 30.333, 170.471 30.333 C 169.692 30.333, 167.833 31.608, 166.340 33.167 M 193.010 36.490 L 186.558 43 193.010 49.510 L 199.462 56.020 205.972 49.510 L 212.481 43 205.972 36.490 L 199.462 29.980 193.010 36.490 M 80.489 37.011 L 74.541 43.021 80.771 49.251 L 87 55.480 93.229 49.251 L 99.459 43.021 93.511 37.011 C 90.239 33.705, 87.309 31, 87 31 C 86.691 31, 83.761 33.705, 80.489 37.011 M 108.500 37 L 102.563 43 108.500 49 C 111.766 52.300, 114.916 55, 115.500 55 C 116.084 55, 119.234 52.300, 122.500 49 L 128.437 43 122.500 37 C 119.234 33.700, 116.084 31, 115.500 31 C 114.916 31, 111.766 33.700, 108.500 37 M 166.924 33.750 L 164.500 36.500 167.250 34.076 C 169.820 31.810, 170.459 31, 169.674 31 C 169.495 31, 168.258 32.237, 166.924 33.750 M 148.919 50.582 L 142.635 56.922 138.504 53.211 C 136.232 51.170, 134.499 49.328, 134.653 49.117 C 135.040 48.587, 130.386 45, 129.311 45 C 128.831 45, 125.761 47.705, 122.489 51.011 L 116.541 57.021 122.761 63.241 L 128.981 69.461 135.491 63.009 C 139.071 59.461, 142 56.972, 142 57.479 C 142 57.985, 142.468 57.932, 143.040 57.360 C 143.761 56.639, 146.144 58.421, 150.790 63.153 L 157.500 69.986 163.909 63.743 C 167.434 60.309, 170.234 57.275, 170.130 57 C 169.554 55.466, 158.443 45.088, 156.963 44.700 C 155.780 44.391, 153.144 46.319, 148.919 50.582 M 37.499 51.001 L 31.560 57.002 38.011 63.511 L 44.462 70.020 50.961 63.521 L 57.459 57.022 51.511 51.011 C 48.239 47.705, 45.084 45, 44.500 45 C 43.916 45, 40.765 47.701, 37.499 51.001 M 66.220 51.278 L 59.998 57.556 66.277 63.779 L 72.556 70.002 78.998 63.502 L 85.440 57.002 79.501 51.001 C 76.235 47.701, 73.311 45, 73.002 45 C 72.694 45, 69.642 47.825, 66.220 51.278 M 94.499 51.001 L 88.560 57.002 95.002 63.502 L 101.444 70.002 107.723 63.779 L 114.002 57.556 107.780 51.278 C 104.358 47.825, 101.306 45, 100.998 45 C 100.689 45, 97.765 47.701, 94.499 51.001 M 149.966 50.750 L 144.500 56.500 150.250 51.034 C 155.592 45.956, 156.458 45, 155.716 45 C 155.560 45, 152.972 47.587, 149.966 50.750 M 178.489 51.011 L 172.541 57.022 179.020 63.467 L 185.500 69.911 189 66.601 C 190.925 64.780, 193.829 61.868, 195.453 60.129 L 198.405 56.968 192.484 50.984 C 189.227 47.693, 186.084 45, 185.500 45 C 184.916 45, 181.761 47.705, 178.489 51.011 M 207.220 51.278 L 200.998 57.556 207.277 63.779 L 213.556 70.002 219.998 63.502 L 226.440 57.002 220.501 51.001 C 217.235 47.701, 214.311 45, 214.002 45 C 213.694 45, 210.642 47.825, 207.220 51.278 M 134.353 65.360 C 130.584 69.275, 128.085 71.988, 128.800 71.389 C 129.799 70.552, 131.646 71.899, 136.752 77.189 L 143.403 84.078 149.931 77.550 L 156.459 71.022 150.590 65.091 C 147.362 61.829, 143.931 58.954, 142.964 58.701 C 141.764 58.387, 139.036 60.496, 134.353 65.360 M 23.499 65.001 L 17.560 71.002 24.011 77.511 L 30.462 84.020 36.961 77.521 L 43.459 71.022 37.511 65.011 C 34.239 61.705, 31.084 59, 30.500 59 C 29.916 59, 26.765 61.701, 23.499 65.001 M 52.220 65.278 L 45.998 71.556 52.277 77.779 L 58.556 84.002 64.998 77.502 L 71.440 71.002 65.501 65.001 C 62.235 61.701, 59.311 59, 59.002 59 C 58.694 59, 55.642 61.825, 52.220 65.278 M 80.719 64.779 C 77.573 67.957, 75 71.009, 75 71.560 C 75 72.112, 77.701 75.235, 81.001 78.501 L 87.002 84.440 93.502 77.998 L 100.002 71.556 93.780 65.278 C 90.358 61.825, 87.306 59, 86.998 59 C 86.689 59, 83.864 61.601, 80.719 64.779 M 108.489 65.011 L 102.541 71.021 108.771 77.251 L 115 83.480 121.221 77.259 L 127.443 71.037 123.701 67.206 C 121.643 65.098, 120.306 62.993, 120.730 62.527 C 121.153 62.061, 120.998 61.966, 120.384 62.316 C 119.770 62.666, 118.462 62.063, 117.479 60.976 C 116.495 59.889, 115.408 59, 115.064 59 C 114.719 59, 111.761 61.705, 108.489 65.011 M 135.966 64.750 L 130.500 70.500 136.250 65.034 C 141.592 59.956, 142.458 59, 141.716 59 C 141.560 59, 138.972 61.587, 135.966 64.750 M 164.499 65.001 L 158.560 71.002 165.011 77.511 L 171.462 84.020 177.961 77.521 L 184.459 71.022 178.511 65.011 C 175.239 61.705, 172.084 59, 171.500 59 C 170.916 59, 167.765 61.701, 164.499 65.001 M 193.184 65.216 L 186.987 71.433 193.205 77.707 L 199.424 83.981 202.626 80.878 C 204.386 79.172, 206.295 78.064, 206.866 78.417 C 207.469 78.790, 206.436 80.413, 204.408 82.280 L 200.911 85.500 207.435 91.950 L 213.958 98.401 225.554 86.950 C 239.064 73.609, 242.097 69.866, 239.970 69.157 C 239.185 68.895, 236.154 66.421, 233.233 63.659 L 227.924 58.638 221.962 64.538 C 218.683 67.783, 216 70.917, 216 71.503 C 216 72.089, 218.475 75.013, 221.500 78 C 224.525 80.987, 227 83.884, 227 84.437 C 227 84.990, 224.083 82.551, 220.517 79.017 L 214.035 72.592 211.028 75.473 C 207.109 79.228, 205.771 77.892, 209.526 73.973 L 212.405 70.968 206.484 64.984 C 203.227 61.693, 200.297 59, 199.972 59 C 199.647 59, 196.592 61.797, 193.184 65.216 M 120.419 79.294 C 116.613 83.246, 114.085 85.988, 114.800 85.389 C 115.799 84.552, 117.644 85.897, 122.743 91.179 L 129.386 98.060 135.693 91.809 L 142 85.558 136.250 79.706 C 133.087 76.488, 129.788 73.462, 128.919 72.982 C 127.708 72.314, 125.716 73.793, 120.419 79.294 M 38.220 79.278 L 31.998 85.556 38.277 91.779 L 44.556 98.002 50.998 91.502 L 57.440 85.002 51.501 79.001 C 48.235 75.701, 45.311 73, 45.002 73 C 44.694 73, 41.642 75.825, 38.220 79.278 M 66.220 79.278 L 59.998 85.556 66.498 91.998 L 72.998 98.440 78.999 92.501 C 82.299 89.235, 85 86.084, 85 85.500 C 85 84.466, 73.940 73, 72.942 73 C 72.667 73, 69.642 75.825, 66.220 79.278 M 94.719 78.779 C 91.573 81.957, 89 84.924, 89 85.371 C 89 85.819, 89.900 87.329, 91 88.727 C 92.100 90.126, 93 90.983, 93 90.632 C 93 90.281, 94.688 91.870, 96.750 94.164 C 98.813 96.457, 100.376 98.742, 100.225 99.241 C 100.074 99.740, 100.442 99.845, 101.042 99.474 C 101.642 99.103, 101.865 98.532, 101.538 98.205 C 101.211 97.878, 103.752 94.777, 107.184 91.314 L 113.424 85.018 109.692 81.196 C 107.639 79.094, 106.306 76.993, 106.730 76.527 C 107.153 76.061, 106.998 75.966, 106.384 76.316 C 105.770 76.666, 104.462 76.063, 103.479 74.976 C 102.495 73.889, 101.408 73, 101.064 73 C 100.719 73, 97.864 75.601, 94.719 78.779 M 121.966 78.750 L 116.500 84.500 122.250 79.034 C 127.592 73.956, 128.458 73, 127.716 73 C 127.560 73, 124.972 75.588, 121.966 78.750 M 150.499 79.001 L 144.560 85.002 151.011 91.511 L 157.462 98.020 163.882 91.599 L 170.302 85.179 164.423 79.090 C 161.189 75.740, 158.069 73, 157.490 73 C 156.911 73, 153.765 75.701, 150.499 79.001 M 179.220 79.278 L 172.998 85.556 179.268 91.770 L 185.538 97.984 191.233 92.289 C 194.365 89.157, 197.260 86.927, 197.667 87.333 C 198.073 87.740, 195.843 90.635, 192.711 93.767 L 187.016 99.462 193.202 105.704 C 196.604 109.137, 199.135 112.199, 198.825 112.508 C 198.515 112.818, 195.522 110.243, 192.173 106.786 L 186.085 100.500 179.542 106.972 L 172.998 113.444 179.193 119.695 C 182.600 123.133, 185.063 126.270, 184.667 126.667 C 184.270 127.063, 181.133 124.600, 177.695 121.193 L 171.444 114.998 165.231 121.267 L 159.017 127.537 165.212 133.732 C 168.619 137.139, 171.078 140.255, 170.676 140.657 C 170.274 141.059, 167.133 138.600, 163.695 135.193 L 157.444 128.998 150.972 135.542 L 144.500 142.085 150.786 148.173 C 154.243 151.522, 156.818 154.515, 156.508 154.825 C 156.199 155.135, 153.133 152.600, 149.695 149.193 L 143.444 142.998 137.001 149.499 L 130.558 156 137 162.500 C 140.543 166.075, 143.017 169, 142.498 169 C 141.979 169, 138.829 166.300, 135.499 162.999 L 129.444 156.998 123.001 163.499 L 116.558 170 123 176.500 C 126.543 180.075, 128.990 183, 128.437 183 C 127.884 183, 124.987 180.525, 122 177.500 C 119.013 174.475, 116.089 172, 115.503 172 C 114.917 172, 111.765 174.701, 108.499 178.001 L 102.560 184.002 108.808 190.306 C 112.245 193.774, 114.731 196.936, 114.333 197.333 C 113.936 197.731, 110.769 195.240, 107.296 191.798 L 100.981 185.539 94.760 191.760 L 88.539 197.981 94.798 204.296 C 98.240 207.769, 100.731 210.936, 100.333 211.333 C 99.936 211.731, 96.777 209.248, 93.314 205.816 L 87.018 199.576 83.028 203.473 C 77.825 208.553, 76.441 207.181, 81.521 201.979 L 85.411 197.995 81.018 193.518 C 75.273 187.665, 76.682 186.290, 82.537 192.036 L 87.032 196.448 93.240 190.240 L 99.448 184.032 95.036 179.537 C 89.279 173.671, 90.671 172.279, 96.537 178.037 L 101.033 182.449 107.526 175.955 L 114.020 169.462 107.732 163.230 L 101.444 156.998 94.972 163.557 C 89.127 169.481, 88.666 170.240, 90.215 171.393 C 91.491 172.342, 91.641 172.959, 90.800 173.800 C 89.959 174.641, 89.340 174.491, 88.385 173.215 C 87.223 171.665, 86.496 172.104, 80.800 177.800 C 75.104 183.496, 74.665 184.223, 76.215 185.385 C 77.491 186.340, 77.641 186.959, 76.800 187.800 C 75.959 188.641, 75.342 188.491, 74.393 187.215 C 73.240 185.666, 72.481 186.127, 66.557 191.972 L 59.998 198.444 66.203 204.705 L 72.408 210.965 74.630 208.878 C 75.852 207.730, 77.332 207.087, 77.918 207.450 C 78.574 207.855, 78.009 208.954, 76.449 210.304 L 73.913 212.500 80.470 218.984 L 87.026 225.468 149.513 162.987 C 183.881 128.622, 212 100.041, 212 99.472 C 212 98.082, 200.536 86.797, 199.836 87.497 C 199.533 87.800, 198.716 87.362, 198.020 86.524 C 197.324 85.686, 197.134 85, 197.596 85 C 198.059 85, 195.766 82.300, 192.500 79 C 189.234 75.700, 186.311 73, 186.002 73 C 185.694 73, 182.642 75.825, 179.220 79.278 M 107.762 91.804 C 101.172 98.544, 101.217 98.960, 109.410 106.968 L 115.005 112.437 121.503 105.997 L 128 99.558 122.250 93.706 C 113.866 85.174, 114.200 85.218, 107.762 91.804 M 24.220 93.278 L 17.998 99.556 24.277 105.779 L 30.556 112.002 36.998 105.502 L 43.440 99.002 37.501 93.001 C 34.235 89.701, 31.311 87, 31.002 87 C 30.694 87, 27.642 89.825, 24.220 93.278 M 52.220 93.278 L 45.998 99.556 52.498 105.998 L 58.998 112.440 64.999 106.501 C 68.299 103.235, 71 100.084, 71 99.500 C 71 98.466, 59.940 87, 58.942 87 C 58.667 87, 55.642 89.825, 52.220 93.278 M 80.280 93.250 L 74.117 99.500 76.559 102.306 C 77.901 103.849, 79 104.860, 79 104.553 C 79 104.246, 80.688 105.870, 82.750 108.164 C 84.813 110.457, 86.376 112.742, 86.225 113.241 C 86.074 113.740, 86.442 113.845, 87.042 113.474 C 87.642 113.103, 87.865 112.532, 87.538 112.205 C 87.211 111.878, 89.755 108.774, 93.192 105.306 L 99.440 99.002 93.501 93.001 C 90.235 89.701, 87.311 87, 87.002 87 C 86.694 87, 83.669 89.813, 80.280 93.250 M 107.966 92.750 L 102.500 98.500 108.250 93.034 C 113.592 87.956, 114.458 87, 113.716 87 C 113.560 87, 110.972 89.588, 107.966 92.750 M 136.499 93.001 L 130.560 99.002 137.002 105.502 L 143.444 112.002 149.705 105.797 L 155.965 99.592 153.974 97.472 C 152.878 96.306, 152.323 94.975, 152.741 94.515 C 153.158 94.056, 153.011 93.958, 152.413 94.298 C 151.814 94.639, 149.586 93.136, 147.460 90.959 C 145.334 88.781, 143.334 87, 143.016 87 C 142.698 87, 139.765 89.701, 136.499 93.001 M 165.220 93.278 L 158.998 99.556 165.277 105.779 L 171.556 112.002 178.026 105.474 L 184.497 98.945 178.298 92.973 C 174.888 89.688, 171.951 87, 171.770 87 C 171.590 87, 168.642 89.825, 165.220 93.278 M 93.762 105.804 C 87.172 112.544, 87.217 112.960, 95.410 120.968 L 101.005 126.437 107.503 119.997 L 114 113.558 108.250 107.706 C 99.866 99.174, 100.200 99.218, 93.762 105.804 M 38.220 107.278 L 31.998 113.556 38.498 119.998 L 44.998 126.440 50.999 120.501 C 54.299 117.235, 57 114.084, 57 113.500 C 57 112.466, 45.940 101, 44.942 101 C 44.667 101, 41.642 103.825, 38.220 107.278 M 66.195 107.303 L 59.948 113.606 66.209 119.809 L 72.470 126.012 78.965 119.517 L 85.459 113.022 79.511 107.011 C 76.239 103.705, 73.311 101, 73.002 101 C 72.694 101, 69.631 103.836, 66.195 107.303 M 93.966 106.750 L 88.500 112.500 94.250 107.034 C 99.592 101.956, 100.458 101, 99.716 101 C 99.560 101, 96.972 103.588, 93.966 106.750 M 122.719 106.779 C 119.573 109.957, 117 113.005, 117 113.550 C 117 114.096, 119.736 117.185, 123.080 120.413 L 129.160 126.284 135.563 119.938 L 141.965 113.592 139.974 111.472 C 138.878 110.306, 138.323 108.975, 138.741 108.515 C 139.158 108.056, 139.011 107.958, 138.413 108.298 C 137.814 108.639, 135.586 107.136, 133.460 104.959 C 131.334 102.781, 129.334 101, 129.016 101 C 128.698 101, 125.864 103.601, 122.719 106.779 M 151.197 107.302 L 144.998 113.556 151.277 119.779 L 157.556 126.002 163.785 119.717 L 170.015 113.431 165.551 109.050 C 163.096 106.640, 161.364 104.181, 161.704 103.584 C 162.043 102.988, 161.948 102.838, 161.491 103.252 C 161.035 103.666, 159.927 103.339, 159.029 102.526 C 157.559 101.196, 156.773 101.675, 151.197 107.302 M 207.220 107.278 L 200.998 113.556 207.498 119.998 L 213.998 126.440 219.999 120.501 C 223.299 117.235, 226 114.163, 226 113.676 C 226 113.188, 224.875 111.452, 223.500 109.818 C 222.125 108.184, 221 107.122, 221 107.458 C 221 107.794, 219.603 106.479, 217.896 104.535 C 216.189 102.591, 214.489 101, 214.118 101 C 213.746 101, 210.642 103.825, 207.220 107.278 M 78.419 121.278 C 74.613 125.220, 71.926 128.107, 72.446 127.694 C 72.966 127.280, 76.453 129.980, 80.195 133.693 L 86.998 140.444 93.499 134.001 L 100 127.558 94.250 121.706 C 91.087 118.488, 87.788 115.462, 86.919 114.982 C 85.708 114.315, 83.715 115.791, 78.419 121.278 M 24.230 121.268 L 17.998 127.556 24.508 134.008 L 31.019 140.461 37.250 134.230 L 43.481 127.999 36.971 121.490 L 30.462 114.980 24.230 121.268 M 52.195 121.303 L 45.948 127.606 52.209 133.809 L 58.470 140.012 64.973 133.509 L 71.475 127.006 65.488 121.026 C 62.194 117.737, 59.262 115.035, 58.971 115.023 C 58.680 115.010, 55.631 117.836, 52.195 121.303 M 79.469 121.250 L 73.500 127.500 79.750 121.531 C 83.188 118.249, 86 115.436, 86 115.281 C 86 114.542, 85.013 115.444, 79.469 121.250 M 108.719 120.779 C 105.573 123.957, 103 126.945, 103 127.417 C 103 127.890, 104.800 130.229, 107 132.616 C 109.200 135.003, 111 136.691, 111 136.367 C 111 136.043, 111.872 136.841, 112.938 138.139 L 114.877 140.500 121.421 134.046 L 127.965 127.592 125.974 125.472 C 124.878 124.306, 124.323 122.975, 124.741 122.515 C 125.158 122.056, 125.011 121.958, 124.413 122.298 C 123.814 122.639, 121.586 121.136, 119.460 118.959 C 117.334 116.781, 115.334 115, 115.016 115 C 114.698 115, 111.864 117.601, 108.719 120.779 M 137.064 121.435 L 130.734 127.822 136.839 134.159 L 142.945 140.497 149.470 134.030 L 155.995 127.563 151.473 122.973 C 148.986 120.448, 147.187 118.071, 147.476 117.691 C 147.764 117.311, 147.699 117.226, 147.331 117.502 C 146.963 117.778, 145.927 117.339, 145.029 116.526 C 143.559 115.196, 142.760 115.688, 137.064 121.435 M 193.220 121.278 L 186.998 127.556 193.498 133.998 L 199.998 140.440 205.999 134.501 C 209.299 131.235, 212 128.163, 212 127.676 C 212 127.188, 210.875 125.452, 209.500 123.818 C 208.125 122.184, 207 121.122, 207 121.458 C 207 121.794, 205.603 120.479, 203.896 118.535 C 202.189 116.591, 200.489 115, 200.118 115 C 199.746 115, 196.642 117.825, 193.220 121.278 M 63.975 135.738 C 59.864 139.994, 57.158 142.914, 57.962 142.226 C 59.182 141.183, 60.551 142.093, 66.210 147.709 L 72.995 154.442 78.998 148.502 C 82.299 145.235, 85 142.057, 85 141.440 C 85 140.462, 72.772 128, 71.812 128 C 71.613 128, 68.086 131.482, 63.975 135.738 M 38.137 135.362 L 31.948 141.606 38.200 147.800 L 44.452 153.994 50.687 147.814 L 56.922 141.635 53.211 137.561 C 51.170 135.321, 48.336 132.505, 46.913 131.303 L 44.326 129.118 38.137 135.362 M 65.469 135.250 L 59.500 141.500 65.750 135.531 C 71.556 129.987, 72.458 129, 71.719 129 C 71.564 129, 68.751 131.813, 65.469 135.250 M 94.719 134.779 C 91.573 137.957, 89 140.945, 89 141.417 C 89 141.890, 90.800 144.229, 93 146.616 C 95.200 149.003, 97 150.691, 97 150.367 C 97 150.043, 97.872 150.841, 98.938 152.139 L 100.877 154.500 107.439 148.028 L 114.002 141.556 107.780 135.278 C 104.358 131.825, 101.306 129, 100.998 129 C 100.689 129, 97.864 131.601, 94.719 134.779 M 122.948 135.582 C 116.792 141.821, 116.588 142.182, 118.441 143.558 C 119.509 144.351, 120.091 145, 119.734 145 C 119.377 145, 121.336 147.105, 124.087 149.678 L 129.087 154.356 135.541 147.959 L 141.995 141.563 137.473 136.973 C 134.986 134.448, 133.187 132.071, 133.476 131.691 C 133.764 131.311, 133.699 131.226, 133.331 131.502 C 132.963 131.778, 131.927 131.339, 131.029 130.526 C 129.559 129.196, 128.750 129.702, 122.948 135.582 M 179.214 135.284 L 172.998 141.556 179.508 148.008 L 186.019 154.461 192.222 148.258 L 198.426 142.054 195.699 139.208 C 194.199 137.642, 193.203 136.055, 193.486 135.681 C 193.769 135.306, 193.691 135.234, 193.313 135.520 C 192.935 135.807, 191.007 134.459, 189.028 132.527 L 185.429 129.013 179.214 135.284 M 207.220 135.278 L 200.998 141.556 207.498 147.998 L 213.998 154.440 219.999 148.501 C 223.299 145.235, 226 142.084, 226 141.500 C 226 140.466, 214.940 129, 213.942 129 C 213.667 129, 210.642 131.825, 207.220 135.278 M 23.984 149.516 L 17.560 155.998 23.499 161.999 C 26.765 165.299, 29.831 168, 30.311 168 C 30.791 168, 32.329 167.100, 33.727 166 C 35.126 164.900, 35.890 164, 35.427 164 C 34.963 164, 36.453 162.088, 38.737 159.750 L 42.890 155.500 39.088 151.500 C 36.996 149.300, 34.188 146.495, 32.847 145.267 L 30.408 143.035 23.984 149.516 M 45.834 153.667 C 40.170 159.350, 35.949 164, 36.455 164 C 36.961 164, 36.073 165.358, 34.483 167.017 L 31.592 170.035 38.046 176.561 L 44.500 183.087 46.750 180.488 C 47.987 179.058, 49 178.129, 49 178.422 C 49 178.715, 50.878 176.918, 53.174 174.428 L 57.347 169.900 50.644 163.146 C 46.958 159.431, 44.268 156.065, 44.667 155.667 C 45.065 155.268, 48.457 157.984, 52.204 161.703 L 59.017 168.463 65.239 162.241 L 71.461 156.019 65.175 149.676 C 61.717 146.188, 58.268 143.333, 57.510 143.333 C 56.752 143.333, 51.498 147.983, 45.834 153.667 M 80.719 148.779 C 77.573 151.957, 75 154.976, 75 155.487 C 75 155.998, 76.658 158.114, 78.685 160.189 C 83.793 165.421, 81.951 166.349, 76.696 161.192 L 72.433 157.009 66.223 163.275 L 60.012 169.542 64.207 173.736 C 66.514 176.044, 68.078 178.255, 67.683 178.651 C 67.287 179.046, 65.265 177.712, 63.189 175.685 C 61.114 173.658, 58.971 172, 58.427 172 C 57.883 172, 54.761 174.705, 51.489 178.011 L 45.541 184.022 52.039 190.521 L 58.538 197.020 65.019 190.448 L 71.500 183.877 69.311 182.077 C 67.746 180.791, 67.429 179.971, 68.200 179.200 C 68.971 178.429, 69.793 178.746, 71.086 180.311 L 72.894 182.500 79.197 176.197 L 85.500 169.894 83.311 168.086 C 81.746 166.793, 81.429 165.971, 82.200 165.200 C 82.971 164.429, 83.791 164.746, 85.077 166.311 L 86.877 168.500 93.439 162.028 L 100.002 155.556 93.780 149.278 C 90.358 145.825, 87.306 143, 86.998 143 C 86.689 143, 83.864 145.601, 80.719 148.779 M 108.972 149.557 C 102.793 155.819, 102.588 156.182, 104.441 157.558 C 105.509 158.351, 106.091 159, 105.734 159 C 105.377 159, 107.341 161.109, 110.097 163.687 L 115.107 168.374 121.564 161.918 L 128.020 155.462 121.732 149.230 L 115.444 142.998 108.972 149.557 M 164.965 149.561 L 158.500 156.108 162.235 159.554 C 164.290 161.449, 165.718 163, 165.409 163 C 165.099 163, 166.184 164.125, 167.818 165.500 C 169.452 166.875, 171.188 168, 171.676 168 C 172.163 168, 175.227 165.307, 178.484 162.016 L 184.405 156.032 181.689 153.197 C 180.194 151.637, 179.203 150.055, 179.486 149.681 C 179.769 149.306, 179.691 149.234, 179.313 149.520 C 178.935 149.807, 177.007 148.459, 175.028 146.527 L 171.429 143.013 164.965 149.561 M 193.230 149.268 L 186.998 155.556 193.508 162.008 L 200.019 168.461 206.250 162.230 L 212.481 155.999 205.971 149.490 L 199.462 142.980 193.230 149.268 M 50.966 149.750 L 45.500 155.500 51.250 150.034 C 56.592 144.956, 57.458 144, 56.716 144 C 56.560 144, 53.972 146.588, 50.966 149.750 M 39.946 160.750 L 36.500 164.500 40.250 161.054 C 42.313 159.158, 44 157.471, 44 157.304 C 44 156.540, 43.154 157.260, 39.946 160.750 M 150.981 163.544 L 144.500 170.108 148.235 173.554 C 150.290 175.449, 151.718 177, 151.409 177 C 151.099 177, 152.184 178.125, 153.818 179.500 C 155.452 180.875, 157.188 182, 157.676 182 C 158.163 182, 161.239 179.295, 164.511 175.989 L 170.459 169.978 163.961 163.479 L 157.462 156.980 150.981 163.544 M 179.011 163.489 L 172.560 169.998 178.499 175.999 C 181.765 179.299, 184.916 182, 185.500 182 C 186.084 182, 189.239 179.295, 192.511 175.989 L 198.459 169.978 191.961 163.479 L 185.462 156.980 179.011 163.489 M 207.230 163.268 L 200.998 169.556 207.508 176.008 L 214.019 182.461 220.250 176.230 L 226.481 169.999 219.971 163.490 L 213.462 156.980 207.230 163.268 M 23.981 177.541 L 17.500 184.103 21.750 188.087 C 24.088 190.279, 26.014 192.393, 26.031 192.786 C 26.049 193.179, 27.082 194.239, 28.328 195.143 C 30.524 196.736, 30.748 196.637, 35.722 191.893 C 38.543 189.202, 40.574 187, 40.235 187 C 39.895 187, 40.491 186.347, 41.559 185.550 C 43.413 184.164, 43.207 183.805, 36.981 177.540 L 30.462 170.980 23.981 177.541 M 137.022 177.477 L 130.583 183.975 134.041 187.640 C 135.944 189.656, 138.850 192.565, 140.500 194.105 L 143.500 196.905 149.991 190.452 L 156.481 184 149.972 177.490 L 143.462 170.980 137.022 177.477 M 165.010 177.490 L 158.558 184 165.010 190.510 L 171.462 197.020 177.972 190.510 L 184.481 184 177.972 177.490 L 171.462 170.980 165.010 177.490 M 193.010 177.490 L 186.558 184 193.010 190.510 L 199.462 197.020 205.972 190.510 L 212.481 184 205.972 177.490 L 199.462 170.980 193.010 177.490 M 38.010 191.529 L 31.521 197.963 37.979 204.479 L 44.437 210.995 49.195 206.308 C 51.813 203.730, 54.280 201.947, 54.679 202.345 C 55.077 202.744, 53.291 205.183, 50.709 207.765 L 46.014 212.460 52.225 218.727 L 58.437 224.995 63.195 220.308 C 69.378 214.218, 70.818 215.577, 64.750 221.773 C 60.701 225.907, 60.283 226.720, 61.420 228.250 C 62.135 229.213, 62.984 230, 63.305 230 C 63.627 230, 65.922 232.137, 68.406 234.750 L 72.922 239.500 79.471 232.981 L 86.020 226.462 79.451 219.981 C 73.368 213.978, 72.784 213.634, 71.538 215.310 C 70.645 216.510, 69.962 216.748, 69.510 216.016 C 69.135 215.409, 69.396 214.228, 70.090 213.392 C 71.155 212.109, 70.398 210.918, 65.240 205.760 C 60.082 200.602, 58.891 199.845, 57.608 200.910 C 56.772 201.604, 55.591 201.865, 54.984 201.490 C 54.252 201.038, 54.490 200.352, 55.690 199.454 C 57.367 198.199, 57.024 197.623, 51 191.597 L 44.500 185.095 38.010 191.529 M 122.511 191.988 L 116.585 197.977 120.043 201.641 C 121.944 203.657, 124.850 206.565, 126.500 208.105 L 129.500 210.905 135.946 204.497 L 142.391 198.090 136.462 192.045 C 133.200 188.720, 130.061 186, 129.485 186 C 128.909 186, 125.771 188.695, 122.511 191.988 M 150.499 192.001 L 144.560 198.002 151.011 204.511 L 157.462 211.020 163.961 204.521 L 170.459 198.022 164.511 192.011 C 161.239 188.705, 158.084 186, 157.500 186 C 156.916 186, 153.765 188.701, 150.499 192.001 M 178.499 192.001 L 172.560 198.002 179.011 204.511 L 185.462 211.020 191.961 204.521 L 198.459 198.022 192.511 192.011 C 189.239 188.705, 186.084 186, 185.500 186 C 184.916 186, 181.765 188.701, 178.499 192.001 M 207.220 192.278 L 200.998 198.556 207.499 204.999 L 214 211.442 220.501 204.999 L 227.002 198.556 220.780 192.278 C 217.358 188.825, 214.307 186, 214 186 C 213.693 186, 210.642 188.825, 207.220 192.278 M 108.554 205.946 L 102.670 211.891 106.085 215.696 C 107.963 217.788, 110.886 220.715, 112.579 222.199 L 115.658 224.899 121.845 218.656 L 128.033 212.413 121.807 206.207 C 118.382 202.793, 115.324 200, 115.009 200 C 114.695 200, 111.790 202.676, 108.554 205.946 M 136.499 206.001 L 130.560 212.002 137.011 218.511 L 143.462 225.020 149.961 218.521 L 156.459 212.022 150.511 206.011 C 147.239 202.705, 144.084 200, 143.500 200 C 142.916 200, 139.765 202.701, 136.499 206.001 M 164.499 206.001 L 158.560 212.002 165.011 218.511 L 171.462 225.020 177.961 218.521 L 184.459 212.022 178.511 206.011 C 175.239 202.705, 172.084 200, 171.500 200 C 170.916 200, 167.765 202.701, 164.499 206.001 M 193.220 206.278 L 186.998 212.556 193.498 218.998 L 199.998 225.440 205.999 219.501 C 209.299 216.235, 212 213.084, 212 212.500 C 212 211.466, 200.940 200, 199.942 200 C 199.667 200, 196.642 202.825, 193.220 206.278 M 19.496 208.004 L 16.618 211.008 13.819 208.327 C 10.165 204.826, 9.043 205.952, 12.621 209.530 L 15.363 212.272 11.261 216.098 C 9.005 218.202, 6.861 220.861, 6.498 222.006 C 6.093 223.281, 7.666 222.133, 10.555 219.044 C 15.604 213.647, 17.305 212.977, 18.920 215.750 C 19.759 217.191, 19.945 217.226, 19.970 215.950 C 19.986 215.097, 19.451 213.851, 18.781 213.181 C 17.822 212.222, 18.142 211.423, 20.281 209.440 C 21.776 208.054, 23 206.487, 23 205.960 C 23 204.518, 22.629 204.734, 19.496 208.004 M 94.719 219.779 C 91.573 222.957, 89 226.009, 89 226.560 C 89 227.112, 91.705 230.239, 95.011 233.511 L 101.022 239.459 107.536 232.945 L 114.050 226.431 107.816 220.216 C 104.386 216.797, 101.324 214, 101.009 214 C 100.695 214, 97.864 216.601, 94.719 219.779 M 122.499 220.001 L 116.560 226.002 123.002 232.502 L 129.444 239.002 135.723 232.779 L 142.002 226.556 135.780 220.278 C 132.358 216.825, 129.306 214, 128.998 214 C 128.689 214, 125.765 216.701, 122.499 220.001 M 150.499 220.001 L 144.560 226.002 151.011 232.511 L 157.462 239.020 163.961 232.521 L 170.459 226.022 164.511 220.011 C 161.239 216.705, 158.084 214, 157.500 214 C 156.916 214, 153.765 216.701, 150.499 220.001 M 179.220 220.278 L 172.998 226.556 179.498 232.998 L 185.998 239.440 191.999 233.501 C 195.299 230.235, 198 227.084, 198 226.500 C 198 225.466, 186.940 214, 185.942 214 C 185.667 214, 182.642 216.825, 179.220 220.278 M 207.220 220.278 L 200.998 226.556 207.499 232.999 L 214 239.442 220.501 232.999 L 227.002 226.556 220.780 220.278 C 217.358 216.825, 214.307 214, 214 214 C 213.693 214, 210.642 216.825, 207.220 220.278 M 5 228.806 C 5 230.541, 13.764 239.539, 14.628 238.691 C 15.081 238.246, 13.100 235.614, 10.226 232.844 C 7.352 230.073, 5 228.256, 5 228.806 M 13.233 241.566 C 13.602 241.936, 13.230 242.913, 12.405 243.738 C 11.580 244.563, 11.164 245.497, 11.480 245.813 C 11.797 246.130, 12.981 245.464, 14.111 244.333 C 16.050 242.394, 16.064 242.239, 14.364 241.586 C 13.372 241.206, 12.863 241.197, 13.233 241.566 M 17.703 241.672 C 16.922 242.936, 25.650 251.835, 26.907 251.057 C 27.538 250.668, 25.984 248.439, 23.105 245.603 C 20.427 242.966, 17.996 241.197, 17.703 241.672 M 71.750 241.662 C 72.438 241.940, 73.563 241.940, 74.250 241.662 C 74.938 241.385, 74.375 241.158, 73 241.158 C 71.625 241.158, 71.063 241.385, 71.750 241.662" stroke="none" fill="#0c0c0c" fill-rule="evenodd"/><path d="M 187 1.522 C 184.525 2.344, 181.616 3.696, 180.534 4.526 C 178.622 5.995, 178.668 6.135, 182.272 9.738 L 185.975 13.441 190.275 9.221 C 195.307 4.283, 197.891 3.453, 193.216 8.277 L 190.040 11.554 197.770 11.541 C 203.276 11.531, 206.435 12.034, 208.750 13.289 C 213.122 15.660, 212.845 14.231, 208.018 9.518 C 205.828 7.380, 204.263 5.404, 204.539 5.127 C 204.816 4.851, 207.053 6.598, 209.510 9.010 L 213.978 13.395 216.989 10.510 C 218.645 8.924, 220 7.268, 220 6.830 C 220 6.392, 217.637 4.819, 214.750 3.334 C 210.409 1.101, 207.941 0.581, 200.500 0.330 C 194.448 0.126, 190.026 0.516, 187 1.522 M 170.020 13.480 L 163.583 19.975 167.001 23.501 C 168.881 25.440, 170.736 26.909, 171.125 26.764 C 171.513 26.619, 174.607 23.845, 177.999 20.599 L 184.168 14.698 180.312 10.842 L 176.456 6.986 170.020 13.480 M 219.156 10.522 C 217.420 11.983, 216 13.714, 216 14.370 C 216 15.026, 218.665 18.199, 221.922 21.422 L 227.843 27.282 230.853 24.891 C 232.509 23.576, 234.081 21.999, 234.347 21.388 C 234.614 20.776, 232.015 17.483, 228.572 14.071 L 222.312 7.867 219.156 10.522 M 155.986 27.514 L 149.544 34.014 153.584 38.055 L 157.624 42.095 163.756 35.196 L 169.888 28.296 166.159 24.655 L 162.429 21.013 155.986 27.514 M 232.991 25.510 L 229.565 29.045 235.755 35.235 L 241.946 41.426 244.973 38.526 C 246.638 36.931, 248 35.133, 248 34.532 C 248 33.930, 245.394 30.858, 242.208 27.706 L 236.417 21.975 232.991 25.510 M 141.493 42.007 L 135.548 48.015 139.268 51.735 L 142.988 55.454 149.485 49.015 L 155.981 42.576 152.795 39.288 C 151.042 37.480, 149.119 36, 148.523 36 C 147.926 36, 144.762 38.703, 141.493 42.007 M 161.483 40.017 L 158.592 43.035 165.005 49.505 L 171.417 55.975 174.209 53.300 C 175.744 51.829, 177 50.133, 177 49.532 C 177 48.454, 165.948 37, 164.908 37 C 164.614 37, 163.073 38.358, 161.483 40.017 M 246.490 40.011 L 243.605 43.022 247.990 47.490 C 253.545 53.150, 252.883 54.206, 247.118 48.882 C 244.735 46.682, 242.629 45.038, 242.438 45.229 C 242.246 45.420, 242.725 47.359, 243.501 49.538 C 245.337 54.693, 245.351 59.753, 243.544 64.874 C 242.744 67.143, 242.406 68.985, 242.794 68.967 C 243.182 68.949, 245.275 67.162, 247.445 64.995 C 249.614 62.829, 251.611 61.278, 251.882 61.549 C 252.153 61.820, 250.392 64.063, 247.968 66.532 L 243.561 71.023 246.764 74.225 C 249.892 77.353, 250.002 77.382, 251.476 75.464 C 256.617 68.775, 257.409 50.736, 252.956 41.750 C 251.661 39.138, 250.325 37, 249.988 37 C 249.650 37, 248.076 38.355, 246.490 40.011 M 163.500 51 C 166.766 54.300, 169.662 57, 169.937 57 C 170.212 57, 167.766 54.300, 164.500 51 C 161.234 47.700, 158.338 45, 158.063 45 C 157.788 45, 160.234 47.700, 163.500 51 M 127.493 56.007 L 121.548 62.015 125.268 65.735 L 128.988 69.454 135.485 63.015 L 141.981 56.576 138.795 53.288 C 137.042 51.480, 135.119 50, 134.523 50 C 133.926 50, 130.762 52.703, 127.493 56.007 M 175.483 54.017 L 172.592 57.035 179.008 63.508 L 185.424 69.981 188.726 66.781 L 192.027 63.581 185.793 57.291 C 182.363 53.831, 179.291 51, 178.966 51 C 178.640 51, 177.073 52.358, 175.483 54.017 M 175.572 63.173 L 180.099 67.346 173.828 73.674 L 167.557 80.001 169.557 82.001 L 171.557 84.001 177.998 77.502 L 184.440 71.002 178.501 65.001 C 175.235 61.701, 172.221 59, 171.804 59 C 171.386 59, 173.082 60.878, 175.572 63.173 M 113.493 70.007 L 107.548 76.015 111.277 79.744 L 115.007 83.473 121.221 77.259 L 127.435 71.045 124.022 67.522 C 122.144 65.585, 120.344 64, 120.023 64 C 119.701 64, 116.762 66.703, 113.493 70.007 M 190.219 68.274 L 187.019 71.576 193.300 77.802 L 199.581 84.027 202.781 80.726 L 205.981 77.424 199.700 71.198 L 193.419 64.973 190.219 68.274 M 179.166 79.332 C 173.560 84.989, 173.063 85.808, 174.510 87.008 C 175.923 88.181, 176.895 87.585, 182.169 82.311 L 188.209 76.271 192.232 80.636 C 194.444 83.036, 196.746 85, 197.346 85 C 197.946 85, 195.766 82.300, 192.500 79 C 189.234 75.700, 186.311 73, 186.002 73 C 185.694 73, 182.618 75.849, 179.166 79.332 M 235.719 78.779 C 232.573 81.957, 230 85.023, 230 85.592 C 230 86.161, 231.358 87.927, 233.017 89.517 L 236.035 92.408 242.508 85.992 L 248.981 79.576 245.795 76.288 C 244.042 74.480, 242.344 73, 242.023 73 C 241.701 73, 238.864 75.601, 235.719 78.779 M 99.719 83.779 C 96.573 86.957, 94 90.019, 94 90.583 C 94 91.146, 95.480 93.042, 97.288 94.795 L 100.576 97.981 106.997 91.503 L 113.417 85.025 110.012 81.513 C 108.140 79.581, 106.344 78, 106.023 78 C 105.701 78, 102.864 80.601, 99.719 83.779 M 203.700 82.791 L 201.025 85.583 207.570 92.041 L 214.114 98.500 217.153 95.126 L 220.193 91.753 214.378 85.876 C 211.179 82.644, 208.070 80, 207.468 80 C 206.867 80, 205.171 81.256, 203.700 82.791 M 159.498 88.002 C 153.560 94.002, 153.560 94.004, 155.558 96.002 C 157.556 98.001, 157.558 98, 163.946 91.555 C 169.406 86.045, 170.147 84.882, 169.045 83.554 C 166.991 81.079, 165.799 81.635, 159.498 88.002 M 165.174 93.325 C 159.581 98.968, 159.067 99.811, 160.498 100.998 C 161.896 102.159, 162.886 101.561, 168.079 96.422 C 173.629 90.929, 174.971 88.155, 172.478 87.326 C 171.916 87.139, 168.629 89.838, 165.174 93.325 M 200 87.563 C 200 88.113, 202.700 91.234, 206 94.500 C 209.300 97.766, 212 99.987, 212 99.437 C 212 98.887, 209.300 95.766, 206 92.500 C 202.700 89.234, 200 87.013, 200 87.563 M 221.207 93.291 L 214.973 99.581 218.499 102.999 L 222.025 106.417 228.503 99.997 L 234.981 93.576 231.795 90.288 C 230.042 88.480, 228.345 87, 228.025 87 C 227.704 87, 224.637 89.831, 221.207 93.291 M 85.719 97.779 C 82.573 100.957, 80 104.019, 80 104.583 C 80 105.146, 81.480 107.042, 83.288 108.795 L 86.576 111.981 92.997 105.503 L 99.417 99.025 96.012 95.513 C 94.140 93.581, 92.344 92, 92.023 92 C 91.701 92, 88.864 94.601, 85.719 97.779 M 145.533 101.966 C 139.692 107.869, 139.649 107.955, 141.502 110.002 L 143.374 112.071 149.663 105.838 C 155.574 99.980, 155.854 99.496, 154.321 97.802 C 153.424 96.811, 152.408 96, 152.064 96 C 151.719 96, 148.781 98.685, 145.533 101.966 M 151.163 107.336 C 145.560 112.989, 145.063 113.808, 146.510 115.008 C 147.923 116.181, 148.910 115.570, 154.291 110.189 C 159.787 104.693, 160.291 103.862, 158.945 102.516 C 157.599 101.170, 156.756 101.692, 151.163 107.336 M 207.207 107.291 L 200.973 113.581 204.498 116.998 L 208.023 120.415 214.012 114.489 C 217.305 111.229, 220 108.070, 220 107.468 C 220 106.421, 214.901 101, 213.916 101 C 213.656 101, 210.637 103.831, 207.207 107.291 M 71.211 112.287 L 64.980 118.574 68.775 122.281 L 72.571 125.987 78.994 119.506 L 85.417 113.025 82.012 109.513 C 80.140 107.581, 78.345 106, 78.025 106 C 77.704 106, 74.638 108.829, 71.211 112.287 M 131.719 115.779 C 125.606 121.956, 125.124 123.028, 127.554 125.045 C 128.882 126.147, 130.042 125.410, 135.530 119.970 C 141.567 113.987, 141.854 113.497, 140.321 111.802 C 139.424 110.811, 138.408 110, 138.064 110 C 137.719 110, 134.864 112.601, 131.719 115.779 M 137.096 121.403 C 131.289 127.263, 130.093 130, 133.340 130 C 134.013 130, 137.233 127.301, 140.498 124.002 C 145.771 118.673, 146.266 117.837, 144.934 116.506 C 143.602 115.174, 142.729 115.720, 137.096 121.403 M 193.207 121.291 L 186.973 127.581 190.498 130.998 L 194.023 134.415 200.012 128.489 C 203.305 125.229, 206 122.070, 206 121.468 C 206 120.421, 200.901 115, 199.916 115 C 199.656 115, 196.637 117.831, 193.207 121.291 M 57.211 126.287 L 50.980 132.574 54.775 136.281 L 58.571 139.987 64.994 133.506 L 71.417 127.025 68.012 123.513 C 66.140 121.581, 64.345 120, 64.025 120 C 63.704 120, 60.638 122.829, 57.211 126.287 M 117.719 129.779 C 111.606 135.956, 111.124 137.028, 113.554 139.045 C 114.882 140.147, 116.042 139.410, 121.530 133.970 C 127.567 127.987, 127.854 127.497, 126.321 125.802 C 125.424 124.811, 124.408 124, 124.064 124 C 123.719 124, 120.864 126.601, 117.719 129.779 M 123.096 135.403 C 117.289 141.263, 116.093 144, 119.340 144 C 120.013 144, 123.233 141.301, 126.498 138.002 C 131.771 132.673, 132.266 131.837, 130.934 130.506 C 129.602 129.174, 128.729 129.720, 123.096 135.403 M 179.214 135.285 L 172.973 141.581 176.509 145.008 L 180.045 148.435 186.259 142.221 L 192.473 136.007 188.964 132.497 L 185.454 128.988 179.214 135.285 M 43.204 140.294 L 36.980 146.574 40.775 150.281 L 44.571 153.987 50.796 147.706 L 57.020 141.426 53.225 137.719 L 49.429 134.013 43.204 140.294 M 103.719 143.779 C 97.606 149.956, 97.124 151.028, 99.554 153.045 C 100.882 154.147, 102.042 153.410, 107.530 147.970 C 113.567 141.987, 113.854 141.497, 112.321 139.802 C 111.424 138.811, 110.408 138, 110.064 138 C 109.719 138, 106.864 140.601, 103.719 143.779 M 109.096 149.403 C 103.289 155.263, 102.093 158, 105.340 158 C 106.013 158, 109.233 155.301, 112.498 152.002 C 117.771 146.673, 118.266 145.837, 116.934 144.506 C 115.602 143.174, 114.729 143.720, 109.096 149.403 M 165.023 149.476 L 158.592 155.965 161.483 158.983 C 163.073 160.642, 164.867 162, 165.468 162 C 166.070 162, 169.238 159.297, 172.507 155.993 L 178.452 149.985 174.953 146.487 L 171.454 142.988 165.023 149.476 M 29.006 154.494 L 22.583 160.975 25.988 164.487 C 27.860 166.419, 29.867 168, 30.446 167.999 C 31.026 167.999, 34.059 165.137, 37.186 161.640 L 42.873 155.281 39.151 151.647 L 35.429 148.013 29.006 154.494 M 89.719 157.779 C 83.606 163.956, 83.124 165.028, 85.554 167.045 C 86.882 168.147, 88.042 167.410, 93.530 161.970 C 99.567 155.987, 99.854 155.497, 98.321 153.802 C 97.424 152.811, 96.408 152, 96.064 152 C 95.719 152, 92.864 154.601, 89.719 157.779 M 95.096 163.403 C 89.289 169.263, 88.093 172, 91.340 172 C 92.013 172, 95.233 169.301, 98.498 166.002 C 103.771 160.673, 104.266 159.837, 102.934 158.506 C 101.602 157.174, 100.729 157.720, 95.096 163.403 M 151.023 163.476 L 144.592 169.965 147.483 172.983 C 149.073 174.642, 150.867 176, 151.468 176 C 152.070 176, 155.238 173.297, 158.507 169.993 L 164.452 163.985 160.953 160.487 L 157.454 156.988 151.023 163.476 M 18.989 172.044 C 17.760 177.018, 16.948 181.281, 17.184 181.518 C 17.421 181.754, 20.269 179.265, 23.514 175.985 L 29.415 170.023 26.011 166.512 C 24.139 164.580, 22.296 163, 21.916 163 C 21.535 163, 20.218 167.070, 18.989 172.044 M 33.468 168.035 C 31.656 170.037, 31.728 170.172, 38.011 176.511 C 44.012 182.565, 44.503 182.854, 46.198 181.321 C 47.189 180.424, 48 179.183, 48 178.564 C 48 177.444, 36.957 166, 35.876 166 C 35.565 166, 34.481 166.916, 33.468 168.035 M 75.216 172.281 C 69.602 177.966, 69.151 179.050, 71.564 181.053 C 72.905 182.166, 74 181.480, 79.240 176.240 C 84.480 171, 85.166 169.905, 84.053 168.564 C 82.020 166.115, 80.798 166.629, 75.216 172.281 M 24.004 177.496 L 17.546 184.012 21.165 187.632 C 25.213 191.680, 26.446 191.520, 27.385 186.825 C 27.739 185.056, 28.506 181.834, 29.090 179.664 L 30.153 175.719 35.568 181.068 C 39.850 185.296, 41.241 186.159, 42.212 185.188 C 43.184 184.216, 42.082 182.600, 36.951 177.470 L 30.462 170.980 24.004 177.496 M 137 177.500 L 130.546 184.012 134.046 187.512 L 137.546 191.012 144 184.500 L 150.454 177.988 146.954 174.488 L 143.454 170.988 137 177.500 M 80.598 177.901 C 75.239 183.316, 74.161 186, 77.343 186 C 79.561 186, 89.326 175.291, 88.669 173.579 C 87.724 171.118, 86.844 171.589, 80.598 177.901 M 47.468 182.035 C 45.656 184.037, 45.729 184.172, 52.044 190.545 L 58.462 197.020 64.907 190.575 C 70.437 185.044, 71.168 183.907, 70.054 182.565 C 68.142 180.262, 66.994 180.600, 62.789 184.706 L 58.995 188.411 54.709 184.206 C 52.353 181.893, 50.174 180, 49.867 180 C 49.561 180, 48.481 180.916, 47.468 182.035 M 43.400 186.399 C 42.401 189.002, 54.400 201, 56.200 199.200 C 57.188 198.212, 56.078 196.596, 50.764 191.283 C 45.154 185.673, 43.978 184.893, 43.400 186.399 M 15.121 188.250 C 14.664 189.488, 13.495 193.792, 12.521 197.816 L 10.752 205.132 13.571 208.074 L 16.389 211.015 19.659 207.846 C 21.957 205.618, 23.286 203.079, 24.132 199.302 L 25.335 193.927 21.464 189.963 C 16.989 185.381, 16.252 185.182, 15.121 188.250 M 66.220 192.278 L 59.998 198.556 66.276 204.778 L 72.555 211.001 74.774 208.781 L 76.993 206.562 72.289 201.786 L 67.585 197.010 71.426 193.075 C 73.884 190.558, 75.051 188.575, 74.665 187.571 C 74.334 186.707, 73.698 186, 73.252 186 C 72.807 186, 69.642 188.825, 66.220 192.278 M 122.493 192.007 L 116.548 198.015 120.047 201.513 L 123.546 205.012 129.977 198.524 L 136.408 192.035 133.517 189.017 C 131.927 187.358, 130.133 186, 129.532 186 C 128.930 186, 125.762 188.703, 122.493 192.007 M 57.431 201.112 C 57.042 201.742, 59.392 204.872, 62.852 208.332 C 67.684 213.164, 69.217 214.183, 70.189 213.211 C 71.162 212.238, 70.180 210.730, 65.491 205.991 C 59.299 199.733, 58.559 199.286, 57.431 201.112 M 108.511 205.988 L 102.585 211.977 106.002 215.502 L 109.419 219.027 115.700 212.802 L 121.981 206.576 118.795 203.288 C 117.042 201.480, 115.344 200, 115.023 200 C 114.701 200, 111.771 202.695, 108.511 205.988 M 8.989 212.250 C 8.391 214.588, 7.713 217.063, 7.482 217.750 C 6.749 219.935, 8.506 219.105, 11.796 215.711 C 14.797 212.615, 14.893 212.292, 13.435 210.211 C 11.194 207.011, 10.215 207.459, 8.989 212.250 M 19.036 210.456 C 18.372 211.257, 18.118 212.382, 18.473 212.956 C 19.570 214.732, 20.745 214.115, 21.245 211.500 C 21.780 208.701, 20.856 208.264, 19.036 210.456 M 75.679 210.802 C 74.146 212.497, 74.436 212.990, 80.524 219.024 L 87.001 225.443 89.221 223.223 L 91.441 221.004 85.502 215.002 C 82.235 211.701, 79.056 209, 78.436 209 C 77.817 209, 76.576 209.811, 75.679 210.802 M 11.325 218.250 C 6.560 223.200, 4.763 226.323, 5.614 228.178 C 5.948 228.905, 8.139 231.193, 10.483 233.263 L 14.746 237.025 17.227 227.128 C 20.714 213.222, 18.856 210.427, 11.325 218.250 M 71.441 215.096 C 71.068 215.698, 72.904 218.364, 75.520 221.020 L 80.276 225.849 76.388 226.863 C 74.250 227.421, 70.956 228.263, 69.068 228.735 C 67.180 229.206, 65.488 230.037, 65.306 230.581 C 65.125 231.126, 66.786 233.338, 68.997 235.497 L 73.018 239.424 79.510 232.990 L 86.002 226.556 79.780 220.278 C 73.302 213.742, 72.562 213.282, 71.441 215.096 M 94.719 219.779 C 91.573 222.957, 89 226.023, 89 226.592 C 89 227.161, 90.358 228.927, 92.017 230.517 L 95.035 233.408 101.508 226.992 L 107.981 220.576 104.795 217.288 C 103.042 215.480, 101.344 214, 101.023 214 C 100.701 214, 97.864 216.601, 94.719 219.779 M 81.712 232.784 C 79.121 235.416, 77 237.845, 77 238.182 C 77 238.795, 92.118 235.208, 92.927 234.404 C 93.411 233.923, 87.951 228, 87.025 228 C 86.695 228, 84.304 230.153, 81.712 232.784 M 2.185 239.234 C -1.151 253.177, -0.637 256, 5.236 256 C 8.830 256, 25 251.979, 25 251.085 C 25 250.717, 23.057 248.509, 20.682 246.178 C 16.379 241.956, 16.357 241.948, 14.527 243.970 C 11.797 246.987, 10.728 246.427, 12.537 242.929 C 14.116 239.874, 14.102 239.835, 9.850 235.179 C 7.500 232.606, 5.312 230.380, 4.989 230.234 C 4.666 230.087, 3.404 234.137, 2.185 239.234 M 55.500 232.421 C 53.850 233.160, 51.031 235.308, 49.236 237.194 L 45.972 240.625 48.433 242.937 L 50.895 245.250 60.197 242.985 C 65.314 241.740, 69.880 240.506, 70.344 240.243 C 71.744 239.451, 62.742 230.997, 60.542 231.039 C 59.419 231.061, 57.150 231.683, 55.500 232.421 M 44.250 234.706 C 41.730 235.191, 41.387 236.247, 43.250 237.791 C 44.142 238.530, 45.145 238.304, 46.750 237.003 C 50.309 234.119, 49.787 233.639, 44.250 234.706 M 28.651 238.792 L 18.802 241.278 23.743 246.219 L 28.683 251.159 32.092 249.696 C 36.256 247.908, 43.483 240.590, 42.559 239.096 C 40.910 236.428, 38.247 236.370, 28.651 238.792 M 41.500 245 C 38.355 248.282, 38.662 248.499, 44.250 246.947 C 48.236 245.840, 48.724 245.124, 46.800 243.200 C 45.105 241.505, 44.724 241.635, 41.500 245" stroke="none" fill="#040404" fill-rule="evenodd"/></svg>